<mxfile host="app.diagrams.net" agent="Mozilla/5.0 (Windows NT 10.0; Win64; x64) AppleWebKit/537.36 (KHTML, like Gecko) Chrome/139.0.0.0 Safari/537.36" version="28.2.0">
  <diagram name="Page-1" id="Rhhe6abSVND6XAtKCxBe">
    <mxGraphModel dx="872" dy="473" grid="1" gridSize="10" guides="1" tooltips="1" connect="1" arrows="1" fold="1" page="1" pageScale="1" pageWidth="827" pageHeight="1169" math="0" shadow="0">
      <root>
        <mxCell id="0" />
        <mxCell id="1" parent="0" />
        <mxCell id="NMC3Qmz3dewzSIWlsyVJ-1" value="&lt;h1 style=&quot;margin-top: 0px;&quot;&gt;ADO.net&lt;/h1&gt;" style="text;html=1;whiteSpace=wrap;overflow=hidden;rounded=0;fillColor=#e51400;fontColor=#ffffff;strokeColor=#B20000;" vertex="1" parent="1">
          <mxGeometry x="40" y="30" width="430" height="40" as="geometry" />
        </mxCell>
        <mxCell id="NMC3Qmz3dewzSIWlsyVJ-2" value="Application" style="rounded=1;whiteSpace=wrap;html=1;fillColor=#e1d5e7;strokeColor=#9673a6;" vertex="1" parent="1">
          <mxGeometry x="30" y="310" width="120" height="110" as="geometry" />
        </mxCell>
        <mxCell id="NMC3Qmz3dewzSIWlsyVJ-3" value="Database" style="shape=cylinder3;whiteSpace=wrap;html=1;boundedLbl=1;backgroundOutline=1;size=15;fillColor=#f5f5f5;fontColor=#333333;strokeColor=#666666;" vertex="1" parent="1">
          <mxGeometry x="290" y="325" width="60" height="80" as="geometry" />
        </mxCell>
        <mxCell id="NMC3Qmz3dewzSIWlsyVJ-4" value="ActiveX Data Object" style="text;html=1;align=center;verticalAlign=middle;whiteSpace=wrap;rounded=0;" vertex="1" parent="1">
          <mxGeometry x="460" y="40" width="150" height="40" as="geometry" />
        </mxCell>
        <mxCell id="NMC3Qmz3dewzSIWlsyVJ-5" value="&amp;nbsp;1)&amp;nbsp; DataSource&amp;nbsp; =&amp;gt; Microsoft.Data.SqlClient" style="text;html=1;align=center;verticalAlign=middle;whiteSpace=wrap;rounded=0;" vertex="1" parent="1">
          <mxGeometry x="90" y="80" width="280" height="40" as="geometry" />
        </mxCell>
        <mxCell id="NMC3Qmz3dewzSIWlsyVJ-6" value="&lt;h1 style=&quot;margin-top: 0px;&quot;&gt;2) Connection Mode&lt;/h1&gt;" style="text;html=1;whiteSpace=wrap;overflow=hidden;rounded=0;" vertex="1" parent="1">
          <mxGeometry x="280" y="150" width="286.5" height="40" as="geometry" />
        </mxCell>
        <mxCell id="NMC3Qmz3dewzSIWlsyVJ-7" value="Application" style="rounded=1;whiteSpace=wrap;html=1;fillColor=#e1d5e7;strokeColor=#9673a6;" vertex="1" parent="1">
          <mxGeometry x="456.5" y="300" width="120" height="110" as="geometry" />
        </mxCell>
        <mxCell id="NMC3Qmz3dewzSIWlsyVJ-8" value="Database" style="shape=cylinder3;whiteSpace=wrap;html=1;boundedLbl=1;backgroundOutline=1;size=15;fillColor=#f5f5f5;fontColor=#333333;strokeColor=#666666;" vertex="1" parent="1">
          <mxGeometry x="680" y="315" width="60" height="80" as="geometry" />
        </mxCell>
        <mxCell id="NMC3Qmz3dewzSIWlsyVJ-9" value="&lt;h1 style=&quot;margin-top: 0px;&quot;&gt;Connected Mode&lt;/h1&gt;" style="text;html=1;whiteSpace=wrap;overflow=hidden;rounded=0;" vertex="1" parent="1">
          <mxGeometry x="90" y="210" width="220" height="40" as="geometry" />
        </mxCell>
        <mxCell id="NMC3Qmz3dewzSIWlsyVJ-10" value="&lt;h1 style=&quot;margin-top: 0px;&quot;&gt;Disconnected Mode&lt;/h1&gt;" style="text;html=1;whiteSpace=wrap;overflow=hidden;rounded=0;" vertex="1" parent="1">
          <mxGeometry x="500" y="210" width="260" height="50" as="geometry" />
        </mxCell>
        <mxCell id="NMC3Qmz3dewzSIWlsyVJ-11" value="" style="shape=flexArrow;endArrow=classic;startArrow=classic;html=1;rounded=0;exitX=1;exitY=0.25;exitDx=0;exitDy=0;fillColor=#f8cecc;strokeColor=#b85450;" edge="1" parent="1" source="NMC3Qmz3dewzSIWlsyVJ-2" target="NMC3Qmz3dewzSIWlsyVJ-3">
          <mxGeometry width="100" height="100" relative="1" as="geometry">
            <mxPoint x="360" y="300" as="sourcePoint" />
            <mxPoint x="460" y="200" as="targetPoint" />
          </mxGeometry>
        </mxCell>
        <mxCell id="NMC3Qmz3dewzSIWlsyVJ-12" value="Select" style="edgeLabel;html=1;align=center;verticalAlign=middle;resizable=0;points=[];" vertex="1" connectable="0" parent="NMC3Qmz3dewzSIWlsyVJ-11">
          <mxGeometry x="-0.1945" y="-2" relative="1" as="geometry">
            <mxPoint as="offset" />
          </mxGeometry>
        </mxCell>
        <mxCell id="NMC3Qmz3dewzSIWlsyVJ-13" value="" style="shape=flexArrow;endArrow=classic;startArrow=classic;html=1;rounded=0;exitX=1;exitY=0.5;exitDx=0;exitDy=0;entryX=0;entryY=0.5;entryDx=0;entryDy=0;entryPerimeter=0;fillColor=#dae8fc;strokeColor=#6c8ebf;" edge="1" parent="1" source="NMC3Qmz3dewzSIWlsyVJ-2" target="NMC3Qmz3dewzSIWlsyVJ-3">
          <mxGeometry width="100" height="100" relative="1" as="geometry">
            <mxPoint x="150" y="385" as="sourcePoint" />
            <mxPoint x="460" y="220" as="targetPoint" />
          </mxGeometry>
        </mxCell>
        <mxCell id="NMC3Qmz3dewzSIWlsyVJ-14" value="Update" style="edgeLabel;html=1;align=center;verticalAlign=middle;resizable=0;points=[];" vertex="1" connectable="0" parent="NMC3Qmz3dewzSIWlsyVJ-13">
          <mxGeometry x="0.1571" y="-3" relative="1" as="geometry">
            <mxPoint as="offset" />
          </mxGeometry>
        </mxCell>
        <mxCell id="NMC3Qmz3dewzSIWlsyVJ-15" value="" style="shape=flexArrow;endArrow=classic;startArrow=classic;html=1;rounded=0;exitX=1;exitY=0.75;exitDx=0;exitDy=0;entryX=0;entryY=0;entryDx=0;entryDy=52.5;entryPerimeter=0;fillColor=#d5e8d4;strokeColor=#82b366;" edge="1" parent="1" source="NMC3Qmz3dewzSIWlsyVJ-2" target="NMC3Qmz3dewzSIWlsyVJ-3">
          <mxGeometry width="100" height="100" relative="1" as="geometry">
            <mxPoint x="360" y="300" as="sourcePoint" />
            <mxPoint x="460" y="200" as="targetPoint" />
          </mxGeometry>
        </mxCell>
        <mxCell id="NMC3Qmz3dewzSIWlsyVJ-16" value="Insert" style="edgeLabel;html=1;align=center;verticalAlign=middle;resizable=0;points=[];" vertex="1" connectable="0" parent="NMC3Qmz3dewzSIWlsyVJ-15">
          <mxGeometry x="-0.1377" y="-6" relative="1" as="geometry">
            <mxPoint as="offset" />
          </mxGeometry>
        </mxCell>
        <mxCell id="NMC3Qmz3dewzSIWlsyVJ-17" value="" style="shape=flexArrow;endArrow=classic;startArrow=classic;html=1;rounded=0;exitX=1;exitY=1;exitDx=0;exitDy=0;entryX=0;entryY=1;entryDx=0;entryDy=-15;entryPerimeter=0;fillColor=#fff2cc;strokeColor=#d6b656;" edge="1" parent="1" source="NMC3Qmz3dewzSIWlsyVJ-2" target="NMC3Qmz3dewzSIWlsyVJ-3">
          <mxGeometry width="100" height="100" relative="1" as="geometry">
            <mxPoint x="360" y="300" as="sourcePoint" />
            <mxPoint x="460" y="200" as="targetPoint" />
          </mxGeometry>
        </mxCell>
        <mxCell id="NMC3Qmz3dewzSIWlsyVJ-18" value="delete" style="edgeLabel;html=1;align=center;verticalAlign=middle;resizable=0;points=[];" vertex="1" connectable="0" parent="NMC3Qmz3dewzSIWlsyVJ-17">
          <mxGeometry x="0.0771" y="2" relative="1" as="geometry">
            <mxPoint as="offset" />
          </mxGeometry>
        </mxCell>
        <mxCell id="NMC3Qmz3dewzSIWlsyVJ-21" value="Database server" style="text;html=1;align=center;verticalAlign=middle;whiteSpace=wrap;rounded=0;" vertex="1" parent="1">
          <mxGeometry x="290" y="285" width="60" height="30" as="geometry" />
        </mxCell>
        <mxCell id="NMC3Qmz3dewzSIWlsyVJ-22" value="Database server" style="text;html=1;align=center;verticalAlign=middle;whiteSpace=wrap;rounded=0;" vertex="1" parent="1">
          <mxGeometry x="680" y="280" width="60" height="30" as="geometry" />
        </mxCell>
        <mxCell id="NMC3Qmz3dewzSIWlsyVJ-23" value="adv: Updated all the time" style="text;html=1;align=center;verticalAlign=middle;whiteSpace=wrap;rounded=0;" vertex="1" parent="1">
          <mxGeometry x="290" y="430" width="60" height="60" as="geometry" />
        </mxCell>
        <mxCell id="NMC3Qmz3dewzSIWlsyVJ-24" value="dis. adv:&lt;div&gt;&amp;nbsp;high traffic on network&lt;br&gt;database lock&lt;/div&gt;" style="text;html=1;align=center;verticalAlign=middle;whiteSpace=wrap;rounded=0;" vertex="1" parent="1">
          <mxGeometry x="140" y="430" width="140" height="70" as="geometry" />
        </mxCell>
        <mxCell id="NMC3Qmz3dewzSIWlsyVJ-25" value="" style="shape=flexArrow;endArrow=classic;startArrow=classic;html=1;rounded=0;exitX=1;exitY=0.25;exitDx=0;exitDy=0;entryX=0;entryY=0;entryDx=0;entryDy=27.5;entryPerimeter=0;fillColor=#f8cecc;strokeColor=#b85450;" edge="1" parent="1" source="NMC3Qmz3dewzSIWlsyVJ-7" target="NMC3Qmz3dewzSIWlsyVJ-8">
          <mxGeometry width="100" height="100" relative="1" as="geometry">
            <mxPoint x="360" y="440" as="sourcePoint" />
            <mxPoint x="460" y="340" as="targetPoint" />
          </mxGeometry>
        </mxCell>
        <mxCell id="NMC3Qmz3dewzSIWlsyVJ-26" value="select" style="edgeLabel;html=1;align=center;verticalAlign=middle;resizable=0;points=[];" vertex="1" connectable="0" parent="NMC3Qmz3dewzSIWlsyVJ-25">
          <mxGeometry x="-0.0045" y="-7" relative="1" as="geometry">
            <mxPoint as="offset" />
          </mxGeometry>
        </mxCell>
        <mxCell id="NMC3Qmz3dewzSIWlsyVJ-27" value="Data" style="shape=cylinder3;whiteSpace=wrap;html=1;boundedLbl=1;backgroundOutline=1;size=15;" vertex="1" parent="1">
          <mxGeometry x="491.5" y="365" width="50" height="40" as="geometry" />
        </mxCell>
        <mxCell id="NMC3Qmz3dewzSIWlsyVJ-28" value="" style="curved=1;endArrow=classic;html=1;rounded=0;exitX=0;exitY=0.75;exitDx=0;exitDy=0;entryX=0.35;entryY=0.95;entryDx=0;entryDy=0;entryPerimeter=0;" edge="1" parent="1" source="NMC3Qmz3dewzSIWlsyVJ-7" target="NMC3Qmz3dewzSIWlsyVJ-27">
          <mxGeometry width="50" height="50" relative="1" as="geometry">
            <mxPoint x="390" y="420" as="sourcePoint" />
            <mxPoint x="440" y="370" as="targetPoint" />
            <Array as="points">
              <mxPoint x="440" y="420" />
              <mxPoint x="470" y="430" />
            </Array>
          </mxGeometry>
        </mxCell>
        <mxCell id="NMC3Qmz3dewzSIWlsyVJ-29" value="update&lt;div&gt;insert&lt;/div&gt;&lt;div&gt;delete&lt;/div&gt;" style="text;html=1;align=center;verticalAlign=middle;whiteSpace=wrap;rounded=0;" vertex="1" parent="1">
          <mxGeometry x="440" y="420" width="60" height="60" as="geometry" />
        </mxCell>
        <mxCell id="NMC3Qmz3dewzSIWlsyVJ-30" value="" style="shape=flexArrow;endArrow=classic;startArrow=classic;html=1;rounded=0;exitX=1;exitY=0.75;exitDx=0;exitDy=0;entryX=0;entryY=0;entryDx=0;entryDy=52.5;entryPerimeter=0;fillColor=#fff2cc;strokeColor=#d6b656;" edge="1" parent="1" source="NMC3Qmz3dewzSIWlsyVJ-7" target="NMC3Qmz3dewzSIWlsyVJ-8">
          <mxGeometry width="100" height="100" relative="1" as="geometry">
            <mxPoint x="580" y="400" as="sourcePoint" />
            <mxPoint x="680" y="300" as="targetPoint" />
          </mxGeometry>
        </mxCell>
        <mxCell id="NMC3Qmz3dewzSIWlsyVJ-31" value="save changes" style="edgeLabel;html=1;align=center;verticalAlign=middle;resizable=0;points=[];" vertex="1" connectable="0" parent="NMC3Qmz3dewzSIWlsyVJ-30">
          <mxGeometry x="-0.0154" y="3" relative="1" as="geometry">
            <mxPoint x="3" y="13" as="offset" />
          </mxGeometry>
        </mxCell>
        <mxCell id="NMC3Qmz3dewzSIWlsyVJ-32" value="&lt;h1 style=&quot;margin-top: 0px;&quot;&gt;Connect Mode steps&lt;/h1&gt;&lt;div&gt;1) define connection&lt;/div&gt;&lt;div&gt;&lt;span style=&quot;white-space: pre;&quot;&gt;&#x9;&lt;/span&gt;SqlConnection con&amp;nbsp; &amp;nbsp;=&amp;gt; connection string (server,database,authentication)&lt;br&gt;&lt;/div&gt;&lt;div&gt;2) define command&lt;/div&gt;&lt;div&gt;&lt;span style=&quot;white-space: pre;&quot;&gt;&#x9;&lt;/span&gt;SqlCommand cmd&lt;span style=&quot;white-space: pre;&quot;&gt;&#x9;&lt;/span&gt;=&amp;gt; type(text,tableDirect,StoredProc.), text, connection&lt;br&gt;&lt;/div&gt;&lt;div&gt;&lt;br&gt;&lt;/div&gt;&lt;div&gt;&lt;br&gt;&lt;/div&gt;&lt;div&gt;3) open connection&amp;nbsp; &amp;nbsp;=&amp;gt;&amp;nbsp;&amp;nbsp;&lt;span style=&quot;background-color: transparent; color: light-dark(rgb(0, 0, 0), rgb(255, 255, 255));&quot;&gt;con.Open()&lt;/span&gt;&lt;/div&gt;&lt;div&gt;&lt;span style=&quot;background-color: transparent; color: light-dark(rgb(0, 0, 0), rgb(255, 255, 255));&quot;&gt;&lt;br&gt;&lt;/span&gt;&lt;/div&gt;&lt;div&gt;&lt;span style=&quot;background-color: transparent; color: light-dark(rgb(0, 0, 0), rgb(255, 255, 255));&quot;&gt;4) Execute command&amp;nbsp; =&amp;gt; cmd&lt;/span&gt;&lt;/div&gt;&lt;div&gt;&lt;span style=&quot;background-color: transparent; color: light-dark(rgb(0, 0, 0), rgb(255, 255, 255));&quot;&gt;&lt;span style=&quot;white-space: pre;&quot;&gt;&#x9;&lt;/span&gt;ExceuteScaler&amp;nbsp; &amp;nbsp; ------------------------------&amp;gt; Select for one value (one cell)&lt;/span&gt;&lt;/div&gt;&lt;div&gt;&lt;span style=&quot;background-color: transparent; color: light-dark(rgb(0, 0, 0), rgb(255, 255, 255));&quot;&gt;&lt;span style=&quot;white-space: pre;&quot;&gt;&#x9;&lt;/span&gt;ExecuteReader&amp;nbsp; -------------------------------&amp;gt; Select multi cells (row, column, table)&lt;br&gt;&lt;/span&gt;&lt;/div&gt;&lt;div&gt;&lt;span style=&quot;background-color: transparent; color: light-dark(rgb(0, 0, 0), rgb(255, 255, 255));&quot;&gt;&lt;span style=&quot;white-space: pre;&quot;&gt;&#x9;&lt;/span&gt;ExecuteNonQuery ---------------------------&amp;gt; insert, update, delete&lt;br&gt;&lt;/span&gt;&lt;/div&gt;&lt;div&gt;&lt;span style=&quot;background-color: transparent; color: light-dark(rgb(0, 0, 0), rgb(255, 255, 255));&quot;&gt;&lt;br&gt;&lt;/span&gt;&lt;/div&gt;&lt;div&gt;&lt;span style=&quot;background-color: transparent; color: light-dark(rgb(0, 0, 0), rgb(255, 255, 255));&quot;&gt;5) Display Data&lt;/span&gt;&lt;/div&gt;&lt;div&gt;&lt;span style=&quot;background-color: transparent; color: light-dark(rgb(0, 0, 0), rgb(255, 255, 255));&quot;&gt;6) close connection&amp;nbsp; &amp;nbsp;=&amp;gt; con.Close()&lt;/span&gt;&lt;/div&gt;" style="text;html=1;whiteSpace=wrap;overflow=hidden;rounded=0;" vertex="1" parent="1">
          <mxGeometry x="70" y="540" width="470" height="280" as="geometry" />
        </mxCell>
        <mxCell id="NMC3Qmz3dewzSIWlsyVJ-33" value="&lt;h1 style=&quot;margin-top: 0px;&quot;&gt;CRUD&lt;/h1&gt;&lt;div&gt;C =&amp;gt; Create&lt;/div&gt;&lt;div&gt;R =&amp;gt; Read&lt;/div&gt;&lt;div&gt;U =&amp;gt; Update&lt;/div&gt;&lt;div&gt;D =&amp;gt; Delete&lt;/div&gt;" style="text;html=1;whiteSpace=wrap;overflow=hidden;rounded=0;" vertex="1" parent="1">
          <mxGeometry x="590" y="620" width="180" height="120" as="geometry" />
        </mxCell>
      </root>
    </mxGraphModel>
  </diagram>
</mxfile>
